<?xml version="1.0" encoding="utf-8"?>
<!-- Generator: Adobe Illustrator 25.2.0, SVG Export Plug-In . SVG Version: 6.00 Build 0)  -->
<svg version="1.1" id="Layer_1" xmlns="http://www.w3.org/2000/svg" xmlns:xlink="http://www.w3.org/1999/xlink" x="0px" y="0px"
	 viewBox="0 0 60 60" style="enable-background:new 0 0 60 60;" xml:space="preserve">
<style type="text/css">
	.st0{fill:#FFFFFF;}
	.st1{fill:url(#SVGID_1_);}
	.st2{fill:url(#SVGID_2_);}
	.st3{fill:url(#SVGID_3_);}
	.st4{fill:url(#SVGID_4_);}
</style>
<g>
	<path class="st0" d="M50.91,0H9.09C4.07,0,0,4.07,0,9.09v41.82C0,55.93,4.07,60,9.09,60h41.82c5.02,0,9.09-4.07,9.09-9.09V9.09
		C60,4.07,55.93,0,50.91,0z"/>
	<g>
		<g>
			<linearGradient id="SVGID_1_" gradientUnits="userSpaceOnUse" x1="19.8615" y1="15.6131" x2="19.8615" y2="43.2389">
				<stop  offset="0" style="stop-color:#23C3E6"/>
				<stop  offset="1" style="stop-color:#0B60A4"/>
			</linearGradient>
			<path class="st1" d="M28.85,47.13h-9.01c-4.96,0-8.98-4.02-8.98-8.98V18.18c0-2.93,2.38-5.31,5.31-5.31h0
				c2.93,0,5.31,2.38,5.31,5.31v15.18C21.49,33.36,21.33,47.13,28.85,47.13z"/>
			<linearGradient id="SVGID_2_" gradientUnits="userSpaceOnUse" x1="21.492" y1="40.2458" x2="36.5721" y2="40.2458">
				<stop  offset="0" style="stop-color:#23C3E6"/>
				<stop  offset="1" style="stop-color:#0B60A4"/>
			</linearGradient>
			<path class="st2" d="M35.67,39.15c0.53-0.18,0.9-0.66,0.9-1.22V37.8c0-0.71-0.58-1.28-1.28-1.28H31.8v1.11h-0.54v-1.11h-6.61
				c-1.74,0-3.15-1.41-3.15-3.16c0,0-0.16,13.78,7.36,13.78h2.4v-1.09h0.54v1.09h3.49c0.71,0,1.28-0.58,1.28-1.28v-0.28
				c0-0.56-0.37-1.04-0.9-1.23c-1.07-0.37-1.84-1.39-1.84-2.6C33.82,40.55,34.59,39.53,35.67,39.15z M31.8,45.1h-0.54v-2.8h0.54
				V45.1z M31.8,41.36h-0.54v-2.8h0.54V41.36z"/>
		</g>
		<g>
			
				<linearGradient id="SVGID_3_" gradientUnits="userSpaceOnUse" x1="948.8226" y1="-556.7694" x2="948.8226" y2="-529.1436" gradientTransform="matrix(-1 0 0 -1 988.9611 -512.3826)">
				<stop  offset="0" style="stop-color:#9D3ADF"/>
				<stop  offset="0.3135" style="stop-color:#8E2FC7"/>
				<stop  offset="0.9729" style="stop-color:#69128A"/>
				<stop  offset="1" style="stop-color:#671187"/>
			</linearGradient>
			<path class="st3" d="M31.15,12.87h9.01c4.96,0,8.98,4.02,8.98,8.98v19.98c0,2.93-2.38,5.31-5.31,5.31h0
				c-2.93,0-5.31-2.38-5.31-5.31V26.64C38.51,26.64,38.67,12.87,31.15,12.87z"/>
			
				<linearGradient id="SVGID_4_" gradientUnits="userSpaceOnUse" x1="950.452" y1="-532.1368" x2="965.5321" y2="-532.1368" gradientTransform="matrix(-1 0 0 -1 988.9611 -512.3826)">
				<stop  offset="0" style="stop-color:#9D3ADF"/>
				<stop  offset="0.3135" style="stop-color:#8E2FC7"/>
				<stop  offset="0.9729" style="stop-color:#69128A"/>
				<stop  offset="1" style="stop-color:#671187"/>
			</linearGradient>
			<path class="st4" d="M31.15,12.87h-2.4v1.09H28.2v-1.09h-3.49c-0.71,0-1.28,0.58-1.28,1.28v0.28c0,0.56,0.37,1.04,0.9,1.23
				c1.07,0.37,1.85,1.39,1.85,2.6c0,1.2-0.77,2.22-1.85,2.59c-0.53,0.18-0.9,0.66-0.9,1.23v0.13c0,0.71,0.57,1.28,1.28,1.28h3.49
				v-1.11h0.54v1.11h6.61c1.74,0,3.16,1.41,3.16,3.16C38.51,26.64,38.67,12.87,31.15,12.87z M28.75,21.43H28.2v-2.8h0.54V21.43z
				 M28.75,17.69H28.2v-2.8h0.54V17.69z"/>
		</g>
	</g>
</g>
</svg>
