<?xml version="1.0" encoding="utf-8"?>
<!-- Generator: Adobe Illustrator 25.2.0, SVG Export Plug-In . SVG Version: 6.00 Build 0)  -->
<svg version="1.1" id="Layer_1" xmlns="http://www.w3.org/2000/svg" xmlns:xlink="http://www.w3.org/1999/xlink" x="0px" y="0px"
	 viewBox="0 0 200 200" style="enable-background:new 0 0 200 200;" xml:space="preserve">
<style type="text/css">
	.st0{fill:#3C3C3B;}
	.st1{fill:url(#SVGID_1_);}
	.st2{fill:url(#SVGID_2_);}
	.st3{fill:url(#SVGID_3_);}
	.st4{fill:url(#SVGID_4_);}
</style>
<g>
	<g>
		<path class="st0" d="M3.83,150.43h6.43v25.63h13.77v5.81H3.83V150.43z"/>
		<path class="st0" d="M34.41,145.72c2.29,0,4.14,1.71,4.14,4c0,2.24-1.86,3.95-4.14,3.95c-2.29,0-4.1-1.71-4.1-3.95
			C30.31,147.43,32.12,145.72,34.41,145.72z M31.22,158.29h6.43v23.58h-6.43V158.29z"/>
		<path class="st0" d="M69.75,158.29l-11.67,24.15h-2.14l-11.67-24.15h6.76l5.95,13.34l5.95-13.34H69.75z"/>
		<path class="st0" d="M80.57,172.25c0.76,3,3.19,4.67,6.62,4.67c2.33,0,4.53-0.81,6.57-2.38l2.67,4.38
			c-2.81,2.33-5.95,3.52-9.43,3.52c-7.29,0.14-13.05-5.53-12.91-12.34c-0.14-6.81,5.53-12.48,12.34-12.34
			c6.53,0,11.1,4.81,11.1,10.96c0,1.14-0.14,2.33-0.43,3.52H80.57z M91.28,167.72c-0.05-2.91-2.29-4.76-5.1-4.76
			c-2.71,0-4.91,1.86-5.62,4.76H91.28z"/>
		<path class="st0" d="M127.06,181.87h-6.38v-13.77c0-2.71-1.76-4.57-4.38-4.57c-2.62,0-4.48,1.86-4.48,4.57v13.77h-6.43v-23.58
			h5.91v2.14c1.67-1.67,4.1-2.67,6.91-2.67c5.48,0,8.86,3.76,8.86,9.48V181.87z"/>
		<path class="st0" d="M151.25,181.87c-1.52,0.38-3,0.57-4.43,0.57c-5.95,0-9.43-2.95-9.43-8.86v-9.86h-3.71v-5.43h3.71v-5.95h6.43
			v5.95h6.67v5.43h-6.67v9.29c0,2.67,1.33,3.67,4.38,3.67c0.38,0,1.38-0.05,3.05-0.19V181.87z"/>
		<path class="st0" d="M161.97,145.72c2.29,0,4.14,1.71,4.14,4c0,2.24-1.86,3.95-4.14,3.95c-2.29,0-4.1-1.71-4.1-3.95
			C157.87,147.43,159.68,145.72,161.97,145.72z M158.78,158.29h6.43v23.58h-6.43V158.29z"/>
		<path class="st0" d="M188.98,181.87l-5.05-7.53l-5.1,7.53h-7.19l8.62-12.15l-8.05-11.43h7.19l4.53,6.81l4.48-6.81h7.19l-8.1,11.38
			l8.67,12.19H188.98z"/>
	</g>
	<g>
		<g>
			<linearGradient id="SVGID_1_" gradientUnits="userSpaceOnUse" x1="67.6542" y1="26.3171" x2="67.6542" y2="114.4542">
				<stop  offset="0" style="stop-color:#23C3E6"/>
				<stop  offset="1" style="stop-color:#0B60A4"/>
			</linearGradient>
			<path class="st1" d="M96.34,126.88H67.6c-15.81,0-28.63-12.82-28.63-28.63V34.5c0-9.36,7.59-16.94,16.94-16.94h0
				c9.36,0,16.94,7.59,16.94,16.94v48.43C72.86,82.93,72.34,126.88,96.34,126.88z"/>
			<linearGradient id="SVGID_2_" gradientUnits="userSpaceOnUse" x1="72.8549" y1="104.9036" x2="120.9651" y2="104.9036">
				<stop  offset="0" style="stop-color:#23C3E6"/>
				<stop  offset="1" style="stop-color:#0B60A4"/>
			</linearGradient>
			<path class="st2" d="M118.09,101.42c1.69-0.59,2.88-2.12,2.88-3.91v-0.42c0-2.26-1.83-4.09-4.09-4.09h-11.13v3.56H104v-3.56
				H82.92c-5.56,0-10.06-4.51-10.06-10.06c0,0-0.52,43.95,23.48,43.95H104v-3.48h1.74v3.48h11.13c2.26,0,4.09-1.83,4.09-4.09v-0.9
				c0-1.79-1.18-3.32-2.88-3.91c-3.43-1.19-5.88-4.45-5.88-8.28C112.2,105.87,114.66,102.61,118.09,101.42z M105.74,120.4H104v-8.92
				h1.74V120.4z M105.74,108.47H104v-8.92h1.74V108.47z"/>
		</g>
		<g>
			
				<linearGradient id="SVGID_3_" gradientUnits="userSpaceOnUse" x1="996.6153" y1="-490.4992" x2="996.6153" y2="-402.3622" gradientTransform="matrix(-1 0 0 -1 1128.9611 -372.3826)">
				<stop  offset="0" style="stop-color:#9D3ADF"/>
				<stop  offset="0.3135" style="stop-color:#8E2FC7"/>
				<stop  offset="0.9729" style="stop-color:#69128A"/>
				<stop  offset="1" style="stop-color:#671187"/>
			</linearGradient>
			<path class="st3" d="M103.66,17.55h28.74c15.81,0,28.63,12.82,28.63,28.63v63.75c0,9.36-7.59,16.94-16.94,16.94h0
				c-9.36,0-16.94-7.59-16.94-16.94V61.51C127.14,61.51,127.66,17.55,103.66,17.55z"/>
			
				<linearGradient id="SVGID_4_" gradientUnits="userSpaceOnUse" x1="1001.816" y1="-411.9127" x2="1049.9261" y2="-411.9127" gradientTransform="matrix(-1 0 0 -1 1128.9611 -372.3826)">
				<stop  offset="0" style="stop-color:#9D3ADF"/>
				<stop  offset="0.3135" style="stop-color:#8E2FC7"/>
				<stop  offset="0.9729" style="stop-color:#69128A"/>
				<stop  offset="1" style="stop-color:#671187"/>
			</linearGradient>
			<path class="st4" d="M81.91,43.01c-1.69,0.59-2.88,2.12-2.88,3.91v0.42c0,2.26,1.83,4.09,4.09,4.09h11.13v-3.56H96v3.56h21.08
				c5.56,0,10.06,4.51,10.06,10.06c0,0,0.52-43.95-23.48-43.95H96v3.48h-1.74v-3.48H83.13c-2.26,0-4.09,1.83-4.09,4.09v0.9
				c0,1.79,1.18,3.32,2.88,3.91c3.43,1.19,5.88,4.45,5.88,8.28C87.8,38.57,85.34,41.82,81.91,43.01z M94.26,24.04H96v8.92h-1.74
				V24.04z M94.26,35.96H96v8.92h-1.74V35.96z"/>
		</g>
	</g>
</g>
</svg>
