<?xml version="1.0" encoding="utf-8"?>
<!-- Generator: Adobe Illustrator 25.2.0, SVG Export Plug-In . SVG Version: 6.00 Build 0)  -->
<svg version="1.1" id="Layer_1" xmlns="http://www.w3.org/2000/svg" xmlns:xlink="http://www.w3.org/1999/xlink" x="0px" y="0px"
	 viewBox="0 0 32 32" style="enable-background:new 0 0 32 32;" xml:space="preserve">
<style type="text/css">
	.st0{fill:#3C3C3B;}
	.st1{fill:url(#SVGID_1_);}
	.st2{fill:url(#SVGID_2_);}
	.st3{fill:url(#SVGID_3_);}
	.st4{fill:url(#SVGID_4_);}
</style>
<g>
	<g>
		<path class="st0" d="M0.43,24.17h1.04v4.15H3.7v0.94H0.43V24.17z"/>
		<path class="st0" d="M5.38,23.4c0.37,0,0.67,0.28,0.67,0.65c0,0.36-0.3,0.64-0.67,0.64c-0.37,0-0.66-0.28-0.66-0.64
			C4.72,23.68,5.01,23.4,5.38,23.4z M4.86,25.44H5.9v3.82H4.86V25.44z"/>
		<path class="st0" d="M11.1,25.44l-1.89,3.91H8.87l-1.89-3.91h1.1l0.96,2.16L10,25.44H11.1z"/>
		<path class="st0" d="M12.85,27.7c0.12,0.49,0.52,0.76,1.07,0.76c0.38,0,0.73-0.13,1.06-0.39l0.43,0.71
			c-0.46,0.38-0.96,0.57-1.53,0.57c-1.18,0.02-2.11-0.89-2.09-2c-0.02-1.1,0.89-2.02,2-2c1.06,0,1.8,0.78,1.8,1.77
			c0,0.19-0.02,0.38-0.07,0.57H12.85z M14.59,26.97c-0.01-0.47-0.37-0.77-0.83-0.77c-0.44,0-0.79,0.3-0.91,0.77H14.59z"/>
		<path class="st0" d="M20.38,29.26h-1.03v-2.23c0-0.44-0.29-0.74-0.71-0.74c-0.42,0-0.72,0.3-0.72,0.74v2.23h-1.04v-3.82h0.96v0.35
			c0.27-0.27,0.66-0.43,1.12-0.43c0.89,0,1.43,0.61,1.43,1.53V29.26z"/>
		<path class="st0" d="M24.3,29.26c-0.25,0.06-0.49,0.09-0.72,0.09c-0.96,0-1.53-0.48-1.53-1.43v-1.6h-0.6v-0.88h0.6v-0.96h1.04
			v0.96h1.08v0.88H23.1v1.5c0,0.43,0.22,0.59,0.71,0.59c0.06,0,0.22-0.01,0.49-0.03V29.26z"/>
		<path class="st0" d="M26.03,23.4c0.37,0,0.67,0.28,0.67,0.65c0,0.36-0.3,0.64-0.67,0.64c-0.37,0-0.66-0.28-0.66-0.64
			C25.37,23.68,25.66,23.4,26.03,23.4z M25.52,25.44h1.04v3.82h-1.04V25.44z"/>
		<path class="st0" d="M30.41,29.26l-0.82-1.22l-0.83,1.22H27.6l1.4-1.97l-1.3-1.85h1.16l0.73,1.1l0.72-1.1h1.16l-1.31,1.84
			l1.4,1.97H30.41z"/>
	</g>
	<g>
		<g>
			<linearGradient id="SVGID_1_" gradientUnits="userSpaceOnUse" x1="10.7628" y1="4.0697" x2="10.7628" y2="18.3403">
				<stop  offset="0" style="stop-color:#23C3E6"/>
				<stop  offset="1" style="stop-color:#0B60A4"/>
			</linearGradient>
			<path class="st1" d="M15.41,20.35h-4.65c-2.56,0-4.64-2.08-4.64-4.64V5.39c0-1.52,1.23-2.74,2.74-2.74h0
				c1.52,0,2.74,1.23,2.74,2.74v7.84C11.6,13.24,11.52,20.35,15.41,20.35z"/>
			<linearGradient id="SVGID_2_" gradientUnits="userSpaceOnUse" x1="11.6048" y1="16.794" x2="19.3945" y2="16.794">
				<stop  offset="0" style="stop-color:#23C3E6"/>
				<stop  offset="1" style="stop-color:#0B60A4"/>
			</linearGradient>
			<path class="st2" d="M18.93,16.23c0.27-0.1,0.47-0.34,0.47-0.63v-0.07c0-0.37-0.3-0.66-0.66-0.66h-1.8v0.58h-0.28v-0.58h-3.41
				c-0.9,0-1.63-0.73-1.63-1.63c0,0-0.08,7.12,3.8,7.12h1.24v-0.56h0.28v0.56h1.8c0.37,0,0.66-0.3,0.66-0.66v-0.15
				c0-0.29-0.19-0.54-0.47-0.63c-0.55-0.19-0.95-0.72-0.95-1.34C17.98,16.95,18.37,16.42,18.93,16.23z M16.93,19.3h-0.28v-1.44h0.28
				V19.3z M16.93,17.37h-0.28v-1.44h0.28V17.37z"/>
		</g>
		<g>
			
				<linearGradient id="SVGID_3_" gradientUnits="userSpaceOnUse" x1="939.7239" y1="-559.3159" x2="939.7239" y2="-545.0453" gradientTransform="matrix(-1 0 0 -1 960.9611 -540.3826)">
				<stop  offset="0" style="stop-color:#9D3ADF"/>
				<stop  offset="0.3135" style="stop-color:#8E2FC7"/>
				<stop  offset="0.9729" style="stop-color:#69128A"/>
				<stop  offset="1" style="stop-color:#671187"/>
			</linearGradient>
			<path class="st3" d="M16.59,2.65h4.65c2.56,0,4.64,2.08,4.64,4.64v10.32c0,1.52-1.23,2.74-2.74,2.74h0
				c-1.52,0-2.74-1.23-2.74-2.74V9.77C20.4,9.77,20.48,2.65,16.59,2.65z"/>
			
				<linearGradient id="SVGID_4_" gradientUnits="userSpaceOnUse" x1="940.5659" y1="-546.5917" x2="948.3556" y2="-546.5917" gradientTransform="matrix(-1 0 0 -1 960.9611 -540.3826)">
				<stop  offset="0" style="stop-color:#9D3ADF"/>
				<stop  offset="0.3135" style="stop-color:#8E2FC7"/>
				<stop  offset="0.9729" style="stop-color:#69128A"/>
				<stop  offset="1" style="stop-color:#671187"/>
			</linearGradient>
			<path class="st4" d="M13.07,6.77c-0.27,0.1-0.47,0.34-0.47,0.63v0.07c0,0.37,0.3,0.66,0.66,0.66h1.8V7.56h0.28v0.58h3.41
				c0.9,0,1.63,0.73,1.63,1.63c0,0,0.08-7.12-3.8-7.12h-1.24v0.56h-0.28V2.65h-1.8c-0.37,0-0.66,0.3-0.66,0.66v0.15
				c0,0.29,0.19,0.54,0.47,0.63c0.55,0.19,0.95,0.72,0.95,1.34C14.02,6.05,13.63,6.58,13.07,6.77z M15.07,3.7h0.28v1.44h-0.28V3.7z
				 M15.07,5.63h0.28v1.44h-0.28V5.63z"/>
		</g>
	</g>
</g>
</svg>
