<?xml version="1.0" encoding="utf-8"?>
<!-- Generator: Adobe Illustrator 25.2.0, SVG Export Plug-In . SVG Version: 6.00 Build 0)  -->
<svg version="1.1" id="Layer_1" xmlns="http://www.w3.org/2000/svg" xmlns:xlink="http://www.w3.org/1999/xlink" x="0px" y="0px"
	 viewBox="0 0 150 150" style="enable-background:new 0 0 150 150;" xml:space="preserve">
<style type="text/css">
	.st0{fill:#3C3C3B;}
	.st1{fill:url(#SVGID_1_);}
	.st2{fill:url(#SVGID_2_);}
	.st3{fill:url(#SVGID_3_);}
	.st4{fill:url(#SVGID_4_);}
</style>
<g>
	<g>
		<path class="st0" d="M2.77,112.88H7.6v19.25h10.34v4.36H2.77V112.88z"/>
		<path class="st0" d="M25.74,109.33c1.72,0,3.11,1.29,3.11,3c0,1.68-1.4,2.97-3.11,2.97c-1.72,0-3.08-1.29-3.08-2.97
			C22.66,110.62,24.02,109.33,25.74,109.33z M23.34,118.78h4.83v17.71h-4.83V118.78z"/>
		<path class="st0" d="M52.28,118.78l-8.76,18.14h-1.61l-8.76-18.14h5.08l4.47,10.02l4.47-10.02H52.28z"/>
		<path class="st0" d="M60.41,129.26c0.57,2.25,2.4,3.51,4.97,3.51c1.75,0,3.4-0.61,4.94-1.79l2,3.29
			c-2.11,1.75-4.47,2.65-7.08,2.65c-5.47,0.11-9.8-4.15-9.69-9.26c-0.11-5.12,4.15-9.37,9.26-9.26c4.9,0,8.33,3.61,8.33,8.23
			c0,0.86-0.11,1.75-0.32,2.65H60.41z M68.45,125.86c-0.04-2.18-1.72-3.58-3.83-3.58c-2.04,0-3.68,1.39-4.22,3.58H68.45z"/>
		<path class="st0" d="M95.32,136.49h-4.79v-10.34c0-2.04-1.32-3.43-3.29-3.43c-1.97,0-3.36,1.4-3.36,3.43v10.34h-4.83v-17.71h4.44
			v1.61c1.25-1.25,3.08-2,5.19-2c4.11,0,6.65,2.83,6.65,7.12V136.49z"/>
		<path class="st0" d="M113.49,136.49c-1.14,0.29-2.25,0.43-3.33,0.43c-4.47,0-7.08-2.22-7.08-6.65v-7.4h-2.79v-4.08h2.79v-4.47
			h4.83v4.47h5.01v4.08h-5.01v6.98c0,2,1,2.75,3.29,2.75c0.29,0,1.04-0.04,2.29-0.14V136.49z"/>
		<path class="st0" d="M121.54,109.33c1.72,0,3.11,1.29,3.11,3c0,1.68-1.4,2.97-3.11,2.97c-1.72,0-3.08-1.29-3.08-2.97
			C118.46,110.62,119.82,109.33,121.54,109.33z M119.14,118.78h4.83v17.71h-4.83V118.78z"/>
		<path class="st0" d="M141.82,136.49l-3.79-5.65l-3.83,5.65h-5.4l6.47-9.12l-6.05-8.59h5.4l3.4,5.12l3.36-5.12h5.4l-6.08,8.55
			l6.51,9.16H141.82z"/>
	</g>
	<g>
		<g>
			<linearGradient id="SVGID_1_" gradientUnits="userSpaceOnUse" x1="50.7083" y1="19.664" x2="50.7083" y2="85.8551">
				<stop  offset="0" style="stop-color:#23C3E6"/>
				<stop  offset="1" style="stop-color:#0B60A4"/>
			</linearGradient>
			<path class="st1" d="M72.25,95.19H50.67c-11.88,0-21.5-9.63-21.5-21.5V25.81c0-7.03,5.7-12.72,12.72-12.72h0
				c7.03,0,12.72,5.7,12.72,12.72v36.37C54.61,62.18,54.23,95.19,72.25,95.19z"/>
			<linearGradient id="SVGID_2_" gradientUnits="userSpaceOnUse" x1="54.614" y1="78.6826" x2="90.7448" y2="78.6826">
				<stop  offset="0" style="stop-color:#23C3E6"/>
				<stop  offset="1" style="stop-color:#0B60A4"/>
			</linearGradient>
			<path class="st2" d="M88.58,76.07c1.27-0.44,2.16-1.59,2.16-2.94v-0.32c0-1.7-1.38-3.07-3.07-3.07h-8.36v2.67H78v-2.67H62.17
				c-4.17,0-7.56-3.38-7.56-7.56c0,0-0.39,33.01,17.64,33.01H78v-2.62h1.3v2.62h8.36c1.7,0,3.07-1.38,3.07-3.07v-0.67
				c0-1.35-0.89-2.49-2.16-2.94c-2.57-0.89-4.42-3.34-4.42-6.22C84.16,79.41,86.01,76.96,88.58,76.07z M79.31,90.32H78v-6.7h1.3
				V90.32z M79.31,81.36H78v-6.7h1.3V81.36z"/>
		</g>
		<g>
			
				<linearGradient id="SVGID_3_" gradientUnits="userSpaceOnUse" x1="979.6694" y1="-510.9882" x2="979.6694" y2="-444.7971" gradientTransform="matrix(-1 0 0 -1 1078.9611 -422.3826)">
				<stop  offset="0" style="stop-color:#9D3ADF"/>
				<stop  offset="0.3135" style="stop-color:#8E2FC7"/>
				<stop  offset="0.9729" style="stop-color:#69128A"/>
				<stop  offset="1" style="stop-color:#671187"/>
			</linearGradient>
			<path class="st3" d="M77.75,13.08h21.58c11.88,0,21.5,9.63,21.5,21.5v47.87c0,7.03-5.7,12.72-12.72,12.72h0
				c-7.03,0-12.72-5.7-12.72-12.72V46.09C95.39,46.09,95.77,13.08,77.75,13.08z"/>
			
				<linearGradient id="SVGID_4_" gradientUnits="userSpaceOnUse" x1="983.5751" y1="-451.9696" x2="1019.7059" y2="-451.9696" gradientTransform="matrix(-1 0 0 -1 1078.9611 -422.3826)">
				<stop  offset="0" style="stop-color:#9D3ADF"/>
				<stop  offset="0.3135" style="stop-color:#8E2FC7"/>
				<stop  offset="0.9729" style="stop-color:#69128A"/>
				<stop  offset="1" style="stop-color:#671187"/>
			</linearGradient>
			<path class="st4" d="M61.42,32.2c-1.27,0.44-2.16,1.59-2.16,2.94v0.32c0,1.7,1.38,3.07,3.07,3.07h8.36v-2.67H72v2.67h15.83
				c4.17,0,7.56,3.38,7.56,7.56c0,0,0.39-33.01-17.64-33.01H72v2.62h-1.3v-2.62h-8.36c-1.7,0-3.07,1.38-3.07,3.07v0.67
				c0,1.35,0.89,2.49,2.16,2.94c2.57,0.89,4.42,3.34,4.42,6.22C65.84,28.86,63.99,31.31,61.42,32.2z M70.69,17.95H72v6.7h-1.3V17.95
				z M70.69,26.91H72v6.7h-1.3V26.91z"/>
		</g>
	</g>
</g>
</svg>
